<!--Instagram-->
<svg aria-hidden="true" style="position:absolute;width:0;height:0" xmlns="http://www.w3.org/2000/svg" overflow="hidden">
    <defs>

    <!--Instagram-->
    <symbol id="icon-instagram" viewBox="0 0 20 20">
        <path d="M19.9804 5.88005C19.9336 4.81738 19.7617 4.0868 19.5155 3.45374C19.2616 2.78176 18.8709 2.18014 18.359 1.68002C17.8589 1.1721 17.2533 0.777435 16.5891 0.527447C15.9524 0.281274 15.2256 0.109427 14.1629 0.0625732C13.0923 0.0117516 12.7524 0 10.0371 0C7.3217 0 6.98182 0.0117516 5.91517 0.0586052C4.8525 0.105459 4.12192 0.277459 3.48901 0.523479C2.81689 0.777435 2.21527 1.16814 1.71514 1.68002C1.20723 2.18014 0.812712 2.78573 0.562572 3.44992C0.3164 4.0868 0.144553 4.81341 0.0976989 5.87609C0.0468773 6.9467 0.0351257 7.28658 0.0351257 10.002C0.0351257 12.7173 0.0468773 13.0572 0.0937309 14.1239C0.140584 15.1865 0.312584 15.9171 0.558757 16.5502C0.812712 17.2221 1.20723 17.8238 1.71514 18.3239C2.21527 18.8318 2.82085 19.2265 3.48505 19.4765C4.12192 19.7226 4.84853 19.8945 5.91136 19.9413C6.97785 19.9883 7.31788 19.9999 10.0333 19.9999C12.7486 19.9999 13.0885 19.9883 14.1552 19.9413C15.2178 19.8945 15.9484 19.7226 16.5813 19.4765C17.9254 18.9568 18.9881 17.8941 19.5078 16.5502C19.7538 15.9133 19.9258 15.1865 19.9726 14.1239C20.0195 13.0572 20.0312 12.7173 20.0312 10.002C20.0312 7.28658 20.0273 6.9467 19.9804 5.88005ZM18.1794 14.0457C18.1363 15.0225 17.9723 15.5499 17.8355 15.9015C17.4995 16.7728 16.8079 17.4643 15.9367 17.8004C15.585 17.9372 15.0538 18.1012 14.0808 18.1441C13.0259 18.1911 12.7096 18.2027 10.041 18.2027C7.37252 18.2027 7.05218 18.1911 6.0011 18.1441C5.02435 18.1012 4.4969 17.9372 4.14527 17.8004C3.71168 17.6402 3.31701 17.3862 2.99667 17.0541C2.66457 16.7298 2.41062 16.3391 2.25037 15.9055C2.11362 15.5539 1.94956 15.0225 1.90667 14.0497C1.85967 12.9948 1.84807 12.6783 1.84807 10.0097C1.84807 7.34122 1.85967 7.02087 1.90667 5.96995C1.94956 4.99319 2.11362 4.46575 2.25037 4.11412C2.41062 3.68038 2.66457 3.28586 3.00064 2.96536C3.3248 2.63327 3.7155 2.37931 4.14924 2.21921C4.50087 2.08247 5.03228 1.9184 6.00507 1.87537C7.05996 1.82851 7.37649 1.81676 10.0449 1.81676C12.7173 1.81676 13.0337 1.82851 14.0848 1.87537C15.0615 1.9184 15.589 2.08247 15.9406 2.21921C16.3742 2.37931 16.7689 2.63327 17.0892 2.96536C17.4213 3.28967 17.6753 3.68038 17.8355 4.11412C17.9723 4.46575 18.1363 4.99701 18.1794 5.96995C18.2262 7.02484 18.238 7.34122 18.238 10.0097C18.238 12.6783 18.2262 12.9908 18.1794 14.0457Z"/>
        <path d="M10.0371 4.8642C7.20071 4.8642 4.89938 7.16537 4.89938 10.0019C4.89938 12.8385 7.20071 15.1396 10.0371 15.1396C12.8737 15.1396 15.1748 12.8385 15.1748 10.0019C15.1748 7.16537 12.8737 4.8642 10.0371 4.8642ZM10.0371 13.3346C8.19699 13.3346 6.70439 11.8422 6.70439 10.0019C6.70439 8.16165 8.19699 6.66921 10.0371 6.66921C11.8774 6.66921 13.3698 8.16165 13.3698 10.0019C13.3698 11.8422 11.8774 13.3346 10.0371 13.3346Z"/>
        <path d="M16.5775 4.6611C16.5775 5.32346 16.0405 5.86052 15.378 5.86052C14.7156 5.86052 14.1785 5.32346 14.1785 4.6611C14.1785 3.99858 14.7156 3.46167 15.378 3.46167C16.0405 3.46167 16.5775 3.99858 16.5775 4.6611Z"/>
    </symbol>

    <!--Twitter-->
    <symbol id="icon-twitter" viewBox="0 0 20 20">
        <path d="M20 3.79875C19.2563 4.125 18.4637 4.34125 17.6375 4.44625C18.4875 3.93875 19.1363 3.14125 19.4412 2.18C18.6488 2.6525 17.7738 2.98625 16.8412 3.1725C16.0887 2.37125 15.0162 1.875 13.8462 1.875C11.5763 1.875 9.74875 3.7175 9.74875 5.97625C9.74875 6.30125 9.77625 6.61375 9.84375 6.91125C6.435 6.745 3.41875 5.11125 1.3925 2.6225C1.03875 3.23625 0.83125 3.93875 0.83125 4.695C0.83125 6.115 1.5625 7.37375 2.6525 8.1025C1.99375 8.09 1.3475 7.89875 0.8 7.5975C0.8 7.61 0.8 7.62625 0.8 7.6425C0.8 9.635 2.22125 11.29 4.085 11.6712C3.75125 11.7625 3.3875 11.8062 3.01 11.8062C2.7475 11.8062 2.4825 11.7913 2.23375 11.7362C2.765 13.36 4.2725 14.5538 6.065 14.5925C4.67 15.6838 2.89875 16.3412 0.98125 16.3412C0.645 16.3412 0.3225 16.3263 0 16.285C1.81625 17.4563 3.96875 18.125 6.29 18.125C13.835 18.125 17.96 11.875 17.96 6.4575C17.96 6.27625 17.9538 6.10125 17.945 5.9275C18.7588 5.35 19.4425 4.62875 20 3.79875Z"/>
    </symbol>

    <!--Facebook-->
    <symbol id="icon-facebook" viewBox="0 0 20 20"> 
        <path d="M13.3308 3.32083H15.1567V0.140833C14.8417 0.0975 13.7583 0 12.4967 0C9.86416 0 8.06082 1.65583 8.06082 4.69917V7.5H5.15582V11.055H8.06082V20H11.6225V11.0558H14.41L14.8525 7.50083H11.6217V5.05167C11.6225 4.02417 11.8992 3.32083 13.3308 3.32083Z"/>
    </symbol>

    <!--Linkedin-->
    <symbol id="icon-linkedin" viewBox="0 0 20 20">
        <path d="M19.995 20V19.9992H20V12.6642C20 9.07587 19.2275 6.31171 15.0325 6.31171C13.0158 6.31171 11.6625 7.41837 11.11 8.46754H11.0517V6.64671H7.07416V19.9992H11.2158V13.3875C11.2158 11.6467 11.5458 9.96337 13.7017 9.96337C15.8258 9.96337 15.8575 11.95 15.8575 13.4992V20H19.995Z"/>
        <path d="M0.329987 6.64746H4.47665V20H0.329987V6.64746Z"/>
        <path d="M2.40167 0C1.07583 0 0 1.07583 0 2.40167C0 3.7275 1.07583 4.82583 2.40167 4.82583C3.7275 4.82583 4.80333 3.7275 4.80333 2.40167C4.8025 1.07583 3.72667 0 2.40167 0V0Z"/>
    </symbol>

    <!--Location-->
    <symbol id="icon-location" viewBox="0 0 24 24">
        <path fill-rule="evenodd" clip-rule="evenodd" d="M20 10.3636C20 16.0909 12 21 12 21C12 21 4 16.0909 4 10.3636C4 6.29681 7.58172 3 12 3C16.4183 3 20 6.29681 20 10.3636V10.3636Z" stroke-linecap="round" stroke-linejoin="round"/>
        <path fill-rule="evenodd" clip-rule="evenodd" d="M12 14C13.6569 14 15 12.6569 15 11C15 9.34315 13.6569 8 12 8C10.3431 8 9 9.34315 9 11C9 12.6569 10.3431 14 12 14Z" stroke-linecap="round" stroke-linejoin="round"/>
    </symbol>

     <!--Name-->    
    <symbol id="name-icon" viewBox="0 0 18 18">
    <path d="M9 9C10.6575 9 12 7.6575 12 6C12 4.3425 10.6575 3 9 3C7.3425 3 6 4.3425 6 6C6 7.6575 7.3425 9 9 9ZM9 10.5C6.9975 10.5 3 11.505 3 13.5V14.25C3 14.6625 3.3375 15 3.75 15H14.25C14.6625 15 15 14.6625 15 14.25V13.5C15 11.505 11.0025 10.5 9 10.5Z"/>
    </symbol>

    <!--Telephone Icon-->
    <symbol id="icon-telephone" viewBox="0 0 24 24" >
        <path fill-rule="evenodd" clip-rule="evenodd" d="M19.9996 16.0028V18.4163C20.0014 18.8693 19.8122 19.3021 19.4783 19.6084C19.1445 19.9147 18.697 20.066 18.2458 20.0252C15.7703 19.7562 13.3924 18.9103 11.3032 17.5555C9.35943 16.3203 7.71147 14.6724 6.47633 12.7286C5.11675 10.6299 4.27066 8.24046 4.0066 5.75383C3.96595 5.30403 4.11622 4.85785 4.42071 4.52429C4.7252 4.19073 5.15586 4.0005 5.6075 4.00008H8.02093C8.82851 3.99213 9.51685 4.5841 9.62988 5.38378C9.73174 6.15613 9.92065 6.91447 10.193 7.64435C10.414 8.23232 10.2727 8.89515 9.83099 9.34179L8.80931 10.3635C9.95453 12.3775 11.6221 14.0451 13.6362 15.1903L14.6578 14.1686C15.1045 13.727 15.7673 13.5856 16.3553 13.8066C17.0852 14.079 17.8435 14.2679 18.6159 14.3698C19.4248 14.4839 20.0198 15.1861 19.9996 16.0028Z" stroke-linecap="round" stroke-linejoin="round"/>
    </symbol>

    <!--Mail-->
    <symbol id="icon-mail" viewBox="0 0 24 24">
        <path fill-rule="evenodd" clip-rule="evenodd" d="M4.8 5H19.2C20.19 5 21 5.7875 21 6.75V17.25C21 18.2125 20.19 19 19.2 19H4.8C3.81 19 3 18.2125 3 17.25V6.75C3 5.7875 3.81 5 4.8 5Z" stroke-linecap="round" stroke-linejoin="round"/>
        <path d="M20 7L12 13L4 7" stroke-linecap="round" stroke-linejoin="round"/>
    </symbol>

    <symbol id="email-icon" viewBox="0 0 24 24">
    <path d="M15 6H3C2.175 6 1.5075 6.675 1.5075 7.5L1.5 16.5C1.5 17.325 2.175 18 3 18H15C15.825 18 16.5 17.325 16.5 16.5V7.5C16.5 6.675 15.825 6 15 6ZM14.7 9.1875L9.3975 12.5025C9.1575 12.6525 8.8425 12.6525 8.6025 12.5025L3.3 9.1875C3.1125 9.0675 3 8.865 3 8.6475C3 8.145 3.5475 7.845 3.975 8.1075L9 11.25L14.025 8.1075C14.4525 7.845 15 8.145 15 8.6475C15 8.865 14.8875 9.0675 14.7 9.1875Z"/>
    </symbol>

    <!--Checkmark-->
    <symbol id="checkbox-icon" viewBox="0 0 32 32">
    <path d="m4.817 15.389-.169-.162-2.544 2.41 8.962 8.55L29.895 8.225l-2.527-2.411L11.066 21.35l-6.249-5.962z"/>
    </symbol>

    <!--CLOSE-->
    <symbol id="icon-close" viewBox="0 0 8 8">
    <path d="M8 0.805714L7.19429 0L4 3.19429L0.805714 0L0 0.805714L3.19429 4L0 7.19429L0.805714 8L4 4.80571L7.19429 8L8 7.19429L4.80571 4L8 0.805714Z"/>
    </symbol>

     <!-- Hamburger Menu Icons -->
    <symbol id="icon-hamburger-open" viewBox="0 0 32 32" fill="none">
    <path d="M6.4 11.734V9.6h19.2v2.134H6.4zm0 5.332h19.2v-2.133H6.4v2.133zm0 5.334h19.2v-2.134H6.4V22.4z" fill="white"/>
    </symbol>
    

    <symbol id="icon-hamburger-close" viewBox="0 0 32 32">
      <path d="M23.734 10.304 22.23 8.8l-5.963 5.962L10.305 8.8l-1.504 1.504 5.962 5.962-5.962 5.963 1.504 1.504 5.962-5.963 5.963 5.963 1.504-1.504-5.963-5.963 5.963-5.962z"/>
    </symbol>

    <symbol id="header-logo" width="69" height="56" viewBox="0 0 69 56">
    <path id="Vector" d="M39.15 16.8698L37.84 15.8698C37.6353 15.704 37.3734 15.6257 37.1112 15.6519C36.8491 15.6782 36.6079 15.8068 36.44 16.0098L18.31 36.8298L18.59 37.1398L23.08 32.9998C22.9304 32.9396 22.8066 32.8288 22.7301 32.6868C22.6536 32.5448 22.6293 32.3805 22.6614 32.2224C22.6935 32.0643 22.7799 31.9225 22.9057 31.8215C23.0315 31.7206 23.1887 31.6669 23.35 31.6698C23.4954 31.6698 23.637 31.7164 23.754 31.8028C23.871 31.8892 23.9572 32.0108 24 32.1498L29.92 26.6598C30.0107 26.5867 30.1236 26.5469 30.24 26.5469C30.3564 26.5469 30.4693 26.5867 30.56 26.6598L30.86 26.8798C30.9615 26.9525 31.0865 26.9847 31.2105 26.9699C31.3345 26.9551 31.4485 26.8944 31.53 26.7998L39.27 18.1198C39.3523 18.0336 39.415 17.9308 39.454 17.8182C39.493 17.7056 39.5072 17.5859 39.4958 17.4674C39.4845 17.3488 39.4477 17.234 39.388 17.1309C39.3283 17.0278 39.2472 16.9387 39.15 16.8698V16.8698Z"/>
    <path id="Vector_2" d="M47.67 22.73C43.7025 25.553 39.2578 27.6364 34.55 28.88C29.8774 30.0683 25.0962 30.7786 20.28 31C20.377 31.7102 20.5513 32.4077 20.8 33.08C23.52 35.54 44 31.34 48 26.48C48.85 25.47 47.67 22.73 47.67 22.73ZM23.35 33C23.2155 33 23.084 32.9601 22.9722 32.8854C22.8604 32.8107 22.7732 32.7045 22.7218 32.5802C22.6703 32.456 22.6568 32.3192 22.6831 32.1873C22.7093 32.0554 22.7741 31.9342 22.8692 31.8391C22.9643 31.744 23.0854 31.6793 23.2173 31.653C23.3492 31.6268 23.486 31.6403 23.6102 31.6917C23.7345 31.7432 23.8407 31.8304 23.9154 31.9422C23.9901 32.054 24.03 32.1855 24.03 32.32C24.0313 32.4097 24.0147 32.4987 23.981 32.5818C23.9473 32.6649 23.8973 32.7404 23.8338 32.8038C23.7704 32.8672 23.6949 32.9173 23.6118 32.951C23.5287 32.9847 23.4397 33.0013 23.35 33V33Z"/>
    <path id="Vector_3" d="M4 21.2899L4.16 20.5999L6.76 21.1899C6.97451 21.5861 7.10713 22.0214 7.15 22.4699C7.19963 22.945 7.16921 23.425 7.06 23.8899C6.93055 24.5352 6.63401 25.1352 6.2 25.6299C5.78709 26.097 5.25468 26.4428 4.66 26.6299C4.04709 26.8189 3.39521 26.8431 2.77 26.6999C2.14342 26.5646 1.56587 26.2603 1.1 25.8199C0.641271 25.3969 0.311867 24.8526 0.150002 24.2499C-0.029564 23.5954 -0.029564 22.9045 0.150002 22.2499C0.257479 21.76 0.450428 21.2929 0.720002 20.8699C0.975141 20.4853 1.31785 20.1665 1.72 19.9399L2.08 20.4899C1.73531 20.7016 1.43942 20.9839 1.21188 21.3183C0.984346 21.6527 0.830329 22.0316 0.760002 22.4299C0.635988 22.9473 0.646315 23.4877 0.790002 23.9999C0.924371 24.4863 1.1909 24.9259 1.56 25.2699C1.93938 25.6367 2.41403 25.8896 2.93 25.9999C3.43033 26.1404 3.95968 26.1404 4.46 25.9999C4.93929 25.8417 5.36977 25.5628 5.71 25.1899C6.05965 24.7873 6.3006 24.3019 6.41 23.7799C6.57453 23.1468 6.53249 22.4776 6.29 21.8699L4 21.2899Z"/>
    <path id="Vector_4" d="M9.66 15.0002L7.33 18.1102L8.33 19.9002L7.87 20.5202L4.17 13.7702L4.6 13.1802L12.13 14.8002L11.66 15.4202L9.66 15.0002ZM9 14.8402L5 13.9402L7 17.5302L9 14.8402Z"/>
    <path id="Vector_5" d="M9 8.5501L9.6 8.1001L13.41 13.2001L16.55 10.8501L16.93 11.3601L13.2 14.1501L9 8.5501Z"/>
    <path id="Vector_6" d="M15.3 4.38008L15.97 4.08008L18.61 9.86008L22.18 8.24008L22.44 8.82008L18.2 10.7501L15.3 4.38008Z"/>
    <path id="Vector_7" d="M28.48 6.67978L28.63 7.30978L23.81 8.43979L22.21 1.61979L26.89 0.529785L27.03 1.14979L23.03 2.07979L23.6 4.49979L27.12 3.66979L27.27 4.28979L23.74 5.10979L24.34 7.63978L28.48 6.67978Z"/>
    <path id="Vector_8" d="M35.35 6.93021L33.68 4.73021C33.4935 4.74053 33.3065 4.74053 33.12 4.73021L31.24 4.79021L31.31 7.01021H30.57L30.34 0.0102128L33 0.000212802C33.7521 -0.0692453 34.5042 0.132966 35.12 0.570213C35.3795 0.779206 35.5882 1.04442 35.7302 1.34585C35.8723 1.64727 35.944 1.97702 35.94 2.31021C35.9692 2.8044 35.8395 3.29497 35.57 3.71021C35.2826 4.10877 34.8766 4.40628 34.41 4.56021L36.16 6.90021L35.35 6.93021ZM34.65 3.64021C34.8297 3.47556 34.9692 3.27178 35.0576 3.04464C35.1461 2.81749 35.1811 2.57305 35.16 2.33021C35.1652 2.08608 35.1147 1.84398 35.0125 1.62222C34.9103 1.40046 34.759 1.20486 34.57 1.05021C34.1091 0.737692 33.5548 0.592951 33 0.640213L31.1 0.710213L31.22 4.21021L33.08 4.15021C33.6472 4.1712 34.2034 3.99051 34.65 3.64021V3.64021Z"/>
    <path id="Vector_9" d="M40.64 5.07L40.28 7.46L39.55 7.35L39.92 5L37.85 0L38.63 0.12L40.4 4.38L43.4 0.85L44.1 1L40.64 5.07Z"/>
    <path id="Vector_10" d="M50.53 4.65018L51.4 5.78018L51.02 6.08018L50.15 4.92018L49.6 6.23018L49.18 6.05018L49.74 4.74018L48.3 4.93018V4.45018L49.72 4.29018L48.84 3.16018L49.23 2.86018L50 4.00018L50.54 2.68018L50.97 2.86018L50.46 4.20018L51.9 4.00018V4.49018L50.53 4.65018Z"/>
    <path id="Vector_11" d="M53.87 12.7099C53.6339 12.3458 53.4866 11.9314 53.44 11.4999L54.03 11.2399C54.0743 11.6363 54.2039 12.0184 54.41 12.3599C54.6334 12.7428 54.9248 13.0817 55.27 13.3599C55.6264 13.7012 56.0813 13.9216 56.57 13.9899C56.7466 14.0063 56.9245 13.9793 57.0883 13.9114C57.2521 13.8434 57.3969 13.7365 57.51 13.5999C57.5929 13.5084 57.6562 13.4008 57.6957 13.2838C57.7353 13.1669 57.7504 13.043 57.74 12.9199C57.7069 12.6762 57.6253 12.4416 57.5 12.2299C57.3121 11.923 57.1085 11.6259 56.89 11.3399C56.6238 10.9911 56.3831 10.6235 56.17 10.2399C56.0071 9.95284 55.9178 9.6299 55.91 9.29992C55.9093 8.92934 56.0486 8.57218 56.3 8.29992C56.5179 8.03604 56.8055 7.83857 57.13 7.72992C57.4926 7.62518 57.8774 7.62518 58.24 7.72992C58.7072 7.88269 59.139 8.12751 59.51 8.44992C59.8179 8.70599 60.0903 9.00192 60.32 9.32992C60.5324 9.63408 60.6914 9.97227 60.79 10.3299L60.22 10.6299C60.1206 10.2966 59.9723 9.97979 59.78 9.68992C59.5884 9.43106 59.3631 9.199 59.11 8.99992C58.7589 8.66016 58.3054 8.44575 57.82 8.38992C57.6416 8.375 57.4623 8.40466 57.2982 8.47623C57.1342 8.5478 56.9904 8.65903 56.88 8.79992C56.7949 8.89 56.7304 8.99741 56.6907 9.11477C56.651 9.23214 56.6371 9.35669 56.65 9.47992C56.6734 9.73209 56.7556 9.97526 56.89 10.1899C57.03 10.4199 57.23 10.7199 57.5 11.0799C57.7677 11.4207 58.0084 11.7818 58.22 12.1599C58.3864 12.4461 58.4792 12.7691 58.49 13.0999C58.4907 13.4705 58.3514 13.8277 58.1 14.0999C57.8813 14.3674 57.5894 14.5655 57.26 14.6699C56.8981 14.7792 56.5119 14.7792 56.15 14.6699C55.6796 14.5176 55.2444 14.2728 54.87 13.9499C54.4663 13.5986 54.1278 13.1788 53.87 12.7099V12.7099Z"/>
    <path id="Vector_12" d="M63.93 14.1698L62.52 12.1698L63.04 11.7998L66.29 16.4398L65.77 16.8098L64.36 14.8098L59.14 18.4598L58.72 17.8498L63.93 14.1698Z"/>
    <path id="Vector_13" d="M61.69 22.39C61.8685 21.7856 62.2154 21.2445 62.69 20.83C63.1543 20.4141 63.7199 20.1279 64.33 20C64.9519 19.8572 65.6005 19.8814 66.21 20.07C66.7983 20.2645 67.3257 20.6092 67.74 21.07C68.1708 21.5656 68.4639 22.1656 68.59 22.81C68.7556 23.4426 68.7556 24.1073 68.59 24.74C68.4066 25.3421 68.0605 25.8819 67.59 26.3C67.1128 26.727 66.5333 27.0233 65.9077 27.16C65.2821 27.2967 64.6318 27.2691 64.02 27.08C63.4272 26.8949 62.8974 26.5487 62.49 26.08C62.0612 25.587 61.7682 24.9907 61.64 24.35C61.4872 23.7033 61.5045 23.028 61.69 22.39V22.39ZM63 25.57C63.3339 25.9502 63.7665 26.2306 64.25 26.38C64.7483 26.5245 65.275 26.5417 65.7816 26.4298C66.2883 26.318 66.7588 26.0808 67.15 25.74C67.5191 25.4004 67.7917 24.9691 67.94 24.49C68.0794 23.9841 68.0931 23.4517 67.9798 22.9393C67.8665 22.4269 67.6297 21.95 67.29 21.55C66.9415 21.1679 66.4955 20.8879 66 20.74C65.4954 20.606 64.9646 20.606 64.46 20.74C63.9509 20.8377 63.4795 21.0768 63.1 21.43C62.7275 21.7708 62.4545 22.2062 62.31 22.69C62.1742 23.1977 62.1742 23.7322 62.31 24.24C62.4195 24.7361 62.6575 25.1947 63 25.57V25.57Z"/>
    <path id="Vector_14" d="M60.93 33.9999L63.52 32.9999C63.52 32.8199 63.58 32.6399 63.63 32.4499L64.12 30.6399L62 30.0899L62.19 29.3799L68.95 31.1899L68.27 33.7199C68.1168 34.4581 67.7056 35.1176 67.11 35.5799C66.8364 35.7699 66.5224 35.8941 66.1928 35.9427C65.8632 35.9912 65.5268 35.9629 65.21 35.8599C64.7274 35.7552 64.295 35.4891 63.9841 35.1055C63.6732 34.7219 63.5024 34.2437 63.5 33.7499L60.74 34.7499L60.93 33.9999ZM64.28 34.2799C64.3972 34.4924 64.5561 34.679 64.7472 34.8286C64.9383 34.9781 65.1577 35.0875 65.3921 35.1501C65.6266 35.2126 65.8713 35.2272 66.1115 35.1928C66.3517 35.1584 66.5825 35.0758 66.79 34.9499C67.2314 34.5954 67.5326 34.0957 67.64 33.5399L68.12 31.7399L64.73 30.8299L64.25 32.6299C64.0655 33.1663 64.0761 33.7506 64.28 34.2799V34.2799Z"/>
    <path id="Vector_15" d="M57.34 40.4401L56.83 40.0501L59.83 36.1001L65.41 40.3301L62.51 44.1601L62 43.7701L64.45 40.5401L62.45 39.0301L60.26 41.9201L59.76 41.5401L62 38.6501L59.93 37.0801L57.34 40.4401Z"/>
    <path id="Vector_16" d="M55 48.4099L53.57 48.4899V48.0099L55 47.9999L54.23 46.8099L54.62 46.5599L55.38 47.7599L56 46.4199L56.43 46.6499L55.75 47.9099L57.18 47.8299V48.3199H55.73L56.5 49.5099L56.11 49.7599L55.35 48.5599L54.69 49.8599L54.27 49.6199L55 48.4099Z"/>
    <path id="Vector_17" d="M42 47.6099L43.21 48.2799C43.4129 47.8902 43.696 47.5479 44.0407 47.2756C44.3854 47.0033 44.784 46.8071 45.21 46.6999C45.6074 46.576 46.0254 46.5318 46.44 46.5699C46.7997 46.5975 47.1452 46.7219 47.44 46.9299C47.7065 47.1308 47.9025 47.4108 48 47.7299C48.1205 48.1247 48.0993 48.5491 47.94 48.9299C47.6891 49.4473 47.3508 49.9175 46.94 50.3199C47.2697 50.4971 47.5755 50.7155 47.85 50.9699C48.0386 51.1648 48.179 51.4011 48.26 51.6599C48.3113 51.8617 48.3144 52.0726 48.2693 52.2759C48.2241 52.4791 48.1319 52.6688 48 52.8299C47.733 53.2146 47.3347 53.4884 46.88 53.5999C46.4807 53.7522 46.0393 53.7522 45.64 53.5999C45.4624 53.5235 45.305 53.407 45.1801 53.2596C45.0552 53.1121 44.9661 52.9376 44.92 52.7499C44.8152 52.4198 44.8402 52.0622 44.99 51.7499C45.2195 51.2953 45.52 50.8801 45.88 50.5199L43.47 49.1799C43.378 49.6508 43.3578 50.1329 43.41 50.6099H42.8C42.7589 50.0225 42.8267 49.4326 43 48.8699L41.74 48.1699L42 47.6099ZM43.74 48.6099L46.39 50.0799C46.7373 49.7483 47.0248 49.3592 47.24 48.9299C47.3499 48.64 47.3499 48.3199 47.24 48.0299C47.1947 47.8567 47.1069 47.6974 46.9847 47.5665C46.8625 47.4356 46.7097 47.3371 46.54 47.2799C46.1249 47.1397 45.6751 47.1397 45.26 47.2799C44.9208 47.3694 44.6053 47.5322 44.3357 47.7568C44.0662 47.9814 43.8492 48.2624 43.7 48.5799L43.74 48.6099ZM47.5 52.6099C47.5653 52.4994 47.6063 52.3762 47.6201 52.2486C47.6339 52.1209 47.6202 51.9918 47.58 51.8699C47.5187 51.6724 47.4087 51.4936 47.26 51.3499C47.0055 51.1352 46.7269 50.9506 46.43 50.7999C46.1268 51.0997 45.8615 51.4356 45.64 51.7999C45.5191 52.0271 45.4905 52.2921 45.56 52.5399C45.5917 52.6543 45.6473 52.7607 45.7232 52.8521C45.799 52.9434 45.8934 53.0177 46 53.0699C46.2546 53.1659 46.5354 53.1659 46.79 53.0699C47.0619 52.9974 47.2993 52.8309 47.46 52.5999L47.5 52.6099Z"/>
    <path id="Vector_18" d="M29.81 55.3198L29.95 48.3198H30.66L30.55 53.9198L33.39 49.2598H33.74L36.4 53.9998L36.5 48.4298H37.21L37.08 55.4298H36.47L33.53 50.1998L30.42 55.3298L29.81 55.3198Z"/>
    <path id="Vector_19" d="M26.33 48.0001C26.7873 48.4359 27.1145 48.9902 27.2752 49.6012C27.4359 50.2121 27.4237 50.8557 27.24 51.4601C27.0757 52.079 26.7475 52.6421 26.29 53.0901C25.8454 53.5271 25.2879 53.8318 24.68 53.9701C24.0387 54.1148 23.3711 54.0941 22.74 53.9101C22.111 53.7565 21.5323 53.443 21.06 53.0001C20.6095 52.5698 20.2875 52.0228 20.13 51.4201C19.9762 50.7971 19.9876 50.1447 20.1629 49.5274C20.3383 48.9101 20.6716 48.3492 21.13 47.9001C21.5667 47.4642 22.1123 47.1534 22.71 47.0001C23.348 46.8558 24.0122 46.8765 24.64 47.0601C25.2755 47.2212 25.858 47.5452 26.33 48.0001V48.0001ZM22.92 47.6501C22.4308 47.764 21.9837 48.0135 21.63 48.3701C21.2616 48.737 20.9991 49.1965 20.87 49.7001C20.7305 50.2006 20.7305 50.7296 20.87 51.2301C20.9879 51.717 21.241 52.1607 21.6 52.5101C21.9765 52.8783 22.4414 53.1435 22.95 53.2801C23.4585 53.4096 23.9915 53.4096 24.5 53.2801C24.9896 53.1597 25.4383 52.9112 25.8 52.5601C26.1664 52.1917 26.4286 51.7328 26.56 51.2301C26.6998 50.7263 26.6998 50.1939 26.56 49.6901C26.432 49.205 26.1765 48.7631 25.82 48.4101C25.4415 48.0414 24.9723 47.7792 24.46 47.6501C23.9561 47.5108 23.4239 47.5108 22.92 47.6501V47.6501Z"/>
    <path id="Vector_20" d="M15.35 43L15.62 45.75C15.7915 45.8233 15.9585 45.9068 16.12 46L17.75 46.94L18.85 45L19.5 45.37L16 51.4L13.72 50.09C13.0461 49.7515 12.5144 49.1844 12.22 48.49C12.1113 48.1772 12.0746 47.8439 12.1127 47.5149C12.1508 47.1859 12.2627 46.8698 12.44 46.59C12.6724 46.1518 13.0409 45.8008 13.49 45.59C13.9461 45.4011 14.4505 45.3626 14.93 45.48L14.64 42.54L15.35 43ZM14.21 46.16C13.9751 46.219 13.7546 46.3247 13.5615 46.4708C13.3684 46.617 13.2069 46.8006 13.0864 47.0107C12.966 47.2207 12.8892 47.4529 12.8606 47.6934C12.832 47.9338 12.8522 48.1776 12.92 48.41C13.1544 48.9276 13.5607 49.3481 14.07 49.6L15.68 50.53L17.43 47.53L15.82 46.6C15.3572 46.2533 14.7875 46.0799 14.21 46.11V46.16Z"/>
    <path id="Vector_21" d="M9.43 38.3099L9.88 37.8599L13.33 41.4099L8.33 46.2899L5 42.8499L5.46 42.3999L8.29 45.3099L10 43.5799L7.52 40.9999L8 40.5399L10.53 43.1399L12.39 41.3299L9.43 38.3099Z"/>
    <path id="Vector_22" d="M2 34.38L2.24 33L2.71 33.07L2.44 34.49L3.77 34L3.93 34.44L2.58 34.9L3.69 35.84L3.37 36.2L2.3 35.2L2.05 36.62L1.57 36.53L1.85 35.11L0.510001 35.59L0.360001 35.2L1.7 34.73L0.590001 33.8L0.920001 33.44L2 34.38Z"/>
    </symbol>
    </defs>
</svg>
